<?xml version="1.0" standalone="no"?>
<!DOCTYPE svg PUBLIC "-//W3C//DTD SVG 20010904//EN"
 "http://www.w3.org/TR/2001/REC-SVG-20010904/DTD/svg10.dtd">
<svg version="1.0" xmlns="http://www.w3.org/2000/svg"
 width="700.000000pt" height="700.000000pt" viewBox="0 0 700.000000 700.000000"
 preserveAspectRatio="xMidYMid meet">

<g transform="translate(0.000000,700.000000) scale(0.100000,-0.100000)"
fill="#000000" stroke="none">
<path d="M905 6150 l850 -850 847 847 c467 467 848 849 848 850 0 2 -764 3
-1697 3 l-1698 0 850 -850z"/>
<path d="M2683 6121 l-873 -876 1720 -1720 1720 -1720 212 210 c117 115 511
507 876 870 l662 660 0 1727 0 1728 -1722 -2 -1723 -1 -872 -876z m2885 770
c339 -75 627 -235 863 -477 233 -241 379 -514 451 -844 20 -92 22 -134 22
-340 1 -208 -2 -247 -22 -340 -152 -695 -690 -1215 -1376 -1331 -166 -29 -459
-24 -615 10 -338 74 -633 239 -871 488 -224 234 -371 512 -442 836 -20 89 -22
131 -22 337 0 260 11 339 75 531 193 576 683 1013 1266 1129 146 29 142 28
368 25 167 -3 229 -7 303 -24z"/>
<path d="M0 5243 l0 -1698 850 850 850 850 -847 847 c-467 467 -849 848 -850
848 -2 0 -3 -764 -3 -1697z"/>
<path d="M877 4313 l-877 -878 0 -1717 0 -1718 1735 0 c1380 0 1735 3 1735 12
0 7 388 401 862 875 l863 863 -1720 1720 -1720 1720 -878 -877z m1233 -892
c696 -154 1214 -690 1330 -1376 19 -113 21 -156 17 -325 -3 -148 -10 -219 -26
-294 -57 -266 -169 -502 -336 -710 -250 -313 -589 -522 -983 -607 -141 -30
-447 -38 -596 -14 -704 110 -1254 632 -1408 1335 -20 92 -23 133 -23 335 0
201 3 243 23 332 65 297 194 555 386 775 275 314 635 507 1071 572 17 2 125 3
240 1 168 -3 229 -7 305 -24z"/>
<path d="M6152 2587 l-842 -842 845 -845 845 -845 0 1688 c0 928 -1 1687 -3
1687 -1 0 -381 -379 -845 -843z"/>
<path d="M4405 845 l-850 -844 1695 -1 1695 0 -845 845 c-465 465 -845 845
-845 845 0 -1 -382 -381 -850 -845z"/>
</g>
</svg>
